{
    "asset": {
        "copyright": "2020 (c) Adobe Inc.",
        "generator": "Adobe Dimension - 3de52ae4ccc0c25be48106335282fae5a6a58dee",
        "version": "2.0"
    },
    "accessors": [
        {
            "bufferView": 0,
            "componentType": 5126,
            "count": 10824,
            "type": "VEC3",
            "max": [
                0.2911669909954071,
                0.09470702707767487,
                0.0
            ],
            "min": [
                0.005966796539723873,
                -0.0016503905644640327,
                -0.009999999776482582
            ]
        },
        {
            "bufferView": 1,
            "componentType": 5126,
            "count": 10824,
            "type": "VEC3"
        },
        {
            "bufferView": 2,
            "componentType": 5126,
            "count": 10824,
            "type": "VEC2"
        },
        {
            "bufferView": 3,
            "componentType": 5125,
            "count": 5424,
            "type": "SCALAR",
            "max": [
                10823.0
            ],
            "min": [
                13.0
            ]
        },
        {
            "bufferView": 4,
            "componentType": 5125,
            "count": 2700,
            "type": "SCALAR",
            "max": [
                10794.0
            ],
            "min": [
                1573.0
            ]
        },
        {
            "bufferView": 5,
            "componentType": 5125,
            "count": 2700,
            "type": "SCALAR",
            "max": [
                8156.0
            ],
            "min": [
                0.0
            ]
        },
        {
            "bufferView": 6,
            "componentType": 5126,
            "count": 11952,
            "type": "VEC3",
            "max": [
                0.2904052734375,
                0.09470702707767487,
                0.0
            ],
            "min": [
                0.006220703013241291,
                -0.0016503905644640327,
                -0.009999999776482582
            ]
        },
        {
            "bufferView": 7,
            "componentType": 5126,
            "count": 11952,
            "type": "VEC3"
        },
        {
            "bufferView": 8,
            "componentType": 5126,
            "count": 11952,
            "type": "VEC2"
        },
        {
            "bufferView": 9,
            "componentType": 5125,
            "count": 5988,
            "type": "SCALAR",
            "max": [
                11951.0
            ],
            "min": [
                5.0
            ]
        },
        {
            "bufferView": 10,
            "componentType": 5125,
            "count": 2982,
            "type": "SCALAR",
            "max": [
                11913.0
            ],
            "min": [
                1785.0
            ]
        },
        {
            "bufferView": 11,
            "componentType": 5125,
            "count": 2982,
            "type": "SCALAR",
            "max": [
                10684.0
            ],
            "min": [
                0.0
            ]
        },
        {
            "bufferView": 12,
            "componentType": 5126,
            "count": 28716,
            "type": "VEC3",
            "max": [
                0.9131737947463989,
                0.09470702707767487,
                0.0
            ],
            "min": [
                0.003046874888241291,
                -0.025644531473517419,
                -0.009999999776482582
            ]
        },
        {
            "bufferView": 13,
            "componentType": 5126,
            "count": 28716,
            "type": "VEC3"
        },
        {
            "bufferView": 14,
            "componentType": 5126,
            "count": 28716,
            "type": "VEC2"
        },
        {
            "bufferView": 15,
            "componentType": 5125,
            "count": 14400,
            "type": "SCALAR",
            "max": [
                28664.0
            ],
            "min": [
                1.0
            ]
        },
        {
            "bufferView": 16,
            "componentType": 5125,
            "count": 7158,
            "type": "SCALAR",
            "max": [
                28715.0
            ],
            "min": [
                0.0
            ]
        },
        {
            "bufferView": 17,
            "componentType": 5125,
            "count": 7158,
            "type": "SCALAR",
            "max": [
                27581.0
            ],
            "min": [
                3.0
            ]
        },
        {
            "bufferView": 18,
            "componentType": 5126,
            "count": 36,
            "type": "VEC3",
            "max": [
                0.09999999403953552,
                0.19999998807907105,
                0.09999999403953552
            ],
            "min": [
                -0.10000000894069672,
                0.0,
                -0.09999999403953552
            ]
        },
        {
            "bufferView": 19,
            "componentType": 5126,
            "count": 36,
            "type": "VEC3"
        },
        {
            "bufferView": 20,
            "componentType": 5126,
            "count": 36,
            "type": "VEC2"
        },
        {
            "bufferView": 21,
            "componentType": 5125,
            "count": 36,
            "type": "SCALAR",
            "max": [
                35.0
            ],
            "min": [
                0.0
            ]
        }
    ],
    "bufferViews": [
        {
            "buffer": 0,
            "byteOffset": 0,
            "byteLength": 129888,
            "target": 34962
        },
        {
            "buffer": 0,
            "byteOffset": 129888,
            "byteLength": 129888,
            "target": 34962
        },
        {
            "buffer": 0,
            "byteOffset": 259776,
            "byteLength": 86592,
            "target": 34962
        },
        {
            "buffer": 0,
            "byteOffset": 346368,
            "byteLength": 21696,
            "target": 34963
        },
        {
            "buffer": 0,
            "byteOffset": 368064,
            "byteLength": 10800,
            "target": 34963
        },
        {
            "buffer": 0,
            "byteOffset": 378864,
            "byteLength": 10800,
            "target": 34963
        },
        {
            "buffer": 0,
            "byteOffset": 389664,
            "byteLength": 143424,
            "target": 34962
        },
        {
            "buffer": 0,
            "byteOffset": 533088,
            "byteLength": 143424,
            "target": 34962
        },
        {
            "buffer": 0,
            "byteOffset": 676512,
            "byteLength": 95616,
            "target": 34962
        },
        {
            "buffer": 0,
            "byteOffset": 772128,
            "byteLength": 23952,
            "target": 34963
        },
        {
            "buffer": 0,
            "byteOffset": 796080,
            "byteLength": 11928,
            "target": 34963
        },
        {
            "buffer": 0,
            "byteOffset": 808008,
            "byteLength": 11928,
            "target": 34963
        },
        {
            "buffer": 0,
            "byteOffset": 819936,
            "byteLength": 344592,
            "target": 34962
        },
        {
            "buffer": 0,
            "byteOffset": 1164528,
            "byteLength": 344592,
            "target": 34962
        },
        {
            "buffer": 0,
            "byteOffset": 1509120,
            "byteLength": 229728,
            "target": 34962
        },
        {
            "buffer": 0,
            "byteOffset": 1738848,
            "byteLength": 57600,
            "target": 34963
        },
        {
            "buffer": 0,
            "byteOffset": 1796448,
            "byteLength": 28632,
            "target": 34963
        },
        {
            "buffer": 0,
            "byteOffset": 1825080,
            "byteLength": 28632,
            "target": 34963
        },
        {
            "buffer": 0,
            "byteOffset": 1853712,
            "byteLength": 432,
            "target": 34962
        },
        {
            "buffer": 0,
            "byteOffset": 1854144,
            "byteLength": 432,
            "target": 34962
        },
        {
            "buffer": 0,
            "byteOffset": 1854576,
            "byteLength": 288,
            "target": 34962
        },
        {
            "buffer": 0,
            "byteOffset": 1854864,
            "byteLength": 144,
            "target": 34963
        }
    ],
    "buffers": [
        {
            "byteLength": 1855008,
            "uri": "box_binary.bin"
        }
    ],
    "cameras": [
        {
            "perspective": {
                "znear": 0.000011016147254849784,
                "yfov": 0.6024156808853149,
                "zfar": 2.0,
                "aspectRatio": 1.3333333730697632
            },
            "type": "perspective",
            "name": "render_camera"
        }
    ],
    "images": [
        {
            "name": "composited_baseColor_opacity",
            "uri": "box_images/composited_baseColor_opacity.png",
            "mimeType": "image/png"
        }
    ],
    "materials": [
        {
            "pbrMetallicRoughness": {
                "baseColorFactor": [
                    0.04970663785934448,
                    0.029556745663285257,
                    0.7083767652511597,
                    1.0
                ],
                "metallicFactor": 0.0,
                "roughnessFactor": 0.4000000059604645
            },
            "name": "Matière par défaut 12",
            "doubleSided": true
        },
        {
            "pbrMetallicRoughness": {
                "baseColorFactor": [
                    0.0,
                    0.0,
                    0.0,
                    1.0
                ],
                "metallicFactor": 0.0,
                "roughnessFactor": 0.4000000059604645
            },
            "name": "Matière par défaut 13",
            "doubleSided": true
        },
        {
            "pbrMetallicRoughness": {
                "baseColorFactor": [
                    0.6307567954063416,
                    0.6307567954063416,
                    0.6307567954063416,
                    1.0
                ],
                "metallicFactor": 0.0,
                "roughnessFactor": 0.4000000059604645
            },
            "name": "Matière par défaut 14",
            "doubleSided": true
        },
        {
            "pbrMetallicRoughness": {
                "baseColorFactor": [
                    0.06847813725471497,
                    0.28314825892448428,
                    0.029556745663285257,
                    1.0
                ],
                "metallicFactor": 0.0,
                "roughnessFactor": 0.4000000059604645
            },
            "name": "Matière par défaut 12",
            "doubleSided": true
        },
        {
            "pbrMetallicRoughness": {
                "baseColorFactor": [
                    1.0,
                    0.2158605307340622,
                    0.2158605307340622,
                    1.0
                ],
                "metallicFactor": 0.0,
                "roughnessFactor": 0.4000000059604645
            },
            "name": "Matière par défaut 12",
            "doubleSided": true
        },
        {
            "pbrMetallicRoughness": {
                "baseColorTexture": {
                    "index": 0
                },
                "metallicFactor": 0.0,
                "roughnessFactor": 0.250980406999588
            },
            "alphaMode": "MASK",
            "name": "Matière par défaut",
            "doubleSided": true
        }
    ],
    "meshes": [
        {
            "name": "TextMesh#",
            "primitives": [
                {
                    "attributes": {
                        "POSITION": 0,
                        "NORMAL": 1,
                        "TEXCOORD_0": 2
                    },
                    "indices": 3,
                    "material": 0
                },
                {
                    "attributes": {
                        "TEXCOORD_0": 2,
                        "NORMAL": 1,
                        "POSITION": 0
                    },
                    "indices": 4,
                    "material": 1
                },
                {
                    "attributes": {
                        "POSITION": 0,
                        "NORMAL": 1,
                        "TEXCOORD_0": 2
                    },
                    "indices": 5,
                    "material": 2
                }
            ]
        },
        {
            "name": "TextMesh#",
            "primitives": [
                {
                    "attributes": {
                        "TEXCOORD_0": 8,
                        "NORMAL": 7,
                        "POSITION": 6
                    },
                    "indices": 9,
                    "material": 3
                },
                {
                    "attributes": {
                        "POSITION": 6,
                        "NORMAL": 7,
                        "TEXCOORD_0": 8
                    },
                    "indices": 10,
                    "material": 1
                },
                {
                    "attributes": {
                        "TEXCOORD_0": 8,
                        "NORMAL": 7,
                        "POSITION": 6
                    },
                    "indices": 11,
                    "material": 2
                }
            ]
        },
        {
            "name": "TextMesh#",
            "primitives": [
                {
                    "attributes": {
                        "POSITION": 12,
                        "NORMAL": 13,
                        "TEXCOORD_0": 14
                    },
                    "indices": 15,
                    "material": 4
                },
                {
                    "attributes": {
                        "TEXCOORD_0": 14,
                        "NORMAL": 13,
                        "POSITION": 12
                    },
                    "indices": 16,
                    "material": 1
                },
                {
                    "attributes": {
                        "POSITION": 12,
                        "NORMAL": 13,
                        "TEXCOORD_0": 14
                    },
                    "indices": 17,
                    "material": 2
                }
            ]
        },
        {
            "primitives": [
                {
                    "attributes": {
                        "POSITION": 18,
                        "NORMAL": 19,
                        "TEXCOORD_0": 20
                    },
                    "indices": 21,
                    "material": 5
                }
            ]
        }
    ],
    "nodes": [
        {
            "translation": [
                0.47323077917099,
                0.2827222943305969,
                0.5431484580039978
            ],
            "rotation": [
                -0.12059047073125839,
                0.379409521818161,
                0.04995020851492882,
                0.9159756302833557
            ],
            "scale": [
                1.0,
                1.0,
                0.9999999403953552
            ],
            "camera": 0,
            "name": "render_camera_n3d"
        },
        {
            "translation": [
                -0.10167279094457627,
                0.15686915814876557,
                0.07348759472370148
            ],
            "rotation": [
                -0.491192102432251,
                0.5086554884910584,
                0.4912031888961792,
                0.5086446404457092
            ],
            "scale": [
                0.46705520153045657,
                0.9999998807907105,
                1.0
            ],
            "mesh": 0,
            "name": "Texte 2"
        },
        {
            "translation": [
                0.2386445552110672,
                0.13849784433841706,
                0.06090710684657097
            ],
            "rotation": [
                -0.4867347180843353,
                0.5129225850105286,
                0.486745685338974,
                0.5129116773605347
            ],
            "scale": [
                0.46705520153045657,
                1.0,
                1.0000003576278687
            ],
            "mesh": 1,
            "name": "Texte 4"
        },
        {
            "translation": [
                0.05779457837343216,
                0.150446817278862,
                0.08885722607374191
            ],
            "rotation": [
                -0.483021080493927,
                0.4992564022541046,
                0.5001535415649414,
                0.516991376876831
            ],
            "scale": [
                0.17825819551944734,
                0.9999992847442627,
                0.9999998211860657
            ],
            "mesh": 2,
            "name": "Texte 3"
        },
        {
            "translation": [
                -0.0023519848473370077,
                0.008431176654994488,
                0.0
            ],
            "rotation": [
                0.0,
                0.0,
                -0.017452403903007509,
                0.9998477101325989
            ],
            "scale": [
                2.4158451557159426,
                0.6739333271980286,
                0.9999998807907105
            ],
            "mesh": 3,
            "name": "Cube"
        }
    ],
    "samplers": [
        {}
    ],
    "scenes": [
        {
            "nodes": [
                0,
                1,
                2,
                3,
                4
            ],
            "name": "scene"
        }
    ],
    "textures": [
        {
            "name": "composited_baseColor_opacity",
            "sampler": 0,
            "source": 0
        }
    ],
    "scene": 0
}